<svg id="visual" viewBox="0 0 900 600" width="900" height="600" xmlns="http://www.w3.org/2000/svg" xmlns:xlink="http://www.w3.org/1999/xlink" version="1.1"><rect x="0" y="0" width="900" height="600" fill="#984069"></rect><path d="M393 0L397.3 16.7C401.7 33.3 410.3 66.7 410.8 100C411.3 133.3 403.7 166.7 395.2 200C386.7 233.3 377.3 266.7 385.7 300C394 333.3 420 366.7 424.3 400C428.7 433.3 411.3 466.7 399.8 500C388.3 533.3 382.7 566.7 379.8 583.3L377 600L0 600L0 583.3C0 566.7 0 533.3 0 500C0 466.7 0 433.3 0 400C0 366.7 0 333.3 0 300C0 266.7 0 233.3 0 200C0 166.7 0 133.3 0 100C0 66.7 0 33.3 0 16.7L0 0Z" fill="#511f36" stroke-linecap="round" stroke-linejoin="miter"></path></svg>